<svg xmlns="http://www.w3.org/2000/svg" width="81.272" height="81.277" viewBox="0 0 81.272 81.277"><defs><style>.a{fill:#4cb050;}</style></defs><path class="a" d="M58.3,141.684a9.777,9.777,0,0,1,4.139-1.9c.445-.058.337-.333.224-.6a10.277,10.277,0,0,1-.4-5.62,5.446,5.446,0,0,1,8.618-3.726c.174.116.348.235.525.355.366-.264.214-.626.214-.927.007-3.016-.011-6.032-.007-9.052,0-1.76.435-2.18,2.191-2.183,1.51,0,3.016-.014,4.526.007a1.486,1.486,0,0,1,1.658,1.6c.011.21.007.424.007.634v33.486c0,1.858-.384,2.245-2.205,2.245H3.572c-1.847,0-2.263-.387-2.227-2.216.043-2.35-.257-4.718.156-7.046a8.189,8.189,0,0,1,6.467-6.883c.637-.167.742-.326.532-.949a11.139,11.139,0,0,1-.2-5.985,5.5,5.5,0,0,1,5.67-4.121,5.575,5.575,0,0,1,5.174,5.435c0,1.705.275,3.451-.529,5.077-.156.315.036.427.326.471a8.918,8.918,0,0,1,3.9,1.789c.3-.235.177-.525.177-.775q.011-12.715.011-25.433a3.562,3.562,0,0,0-.406-1.738,14.017,14.017,0,0,1-.8-1.619c-.474-1.235-1.083-2.082-2.665-1.966-1.126.083-1.546-.568-1.55-1.767q-.011-3.71,0-7.423c0-1.246.489-1.8,1.734-1.789.84.007,1-.33.989-1.079-.036-2.654,0-5.308-.025-7.962a1.857,1.857,0,0,1,.912-1.734c1.09-.7,2.173-1.419,3.237-2.158.449-.311.739-.253,1.032.2,1.438,2.223,1.474,1.727-.5,2.9a3.238,3.238,0,0,0-1.861,3.469,47.605,47.605,0,0,1,.025,5.428c-.018.728.257.949.952.923,1.115-.04,2.234-.036,3.349,0,.666.022.9-.243.905-.9a50.252,50.252,0,0,1,.1-5.062,8.467,8.467,0,0,1,6.395-7.264c.771-.17.8-.34.652-1.148-.474-2.564-.952-5.211.681-7.593a5.387,5.387,0,0,1,6.242-2.068,5.479,5.479,0,0,1,3.711,5.24c-.033,1.669.29,3.375-.482,4.993-.257.536.366.449.612.5a8.483,8.483,0,0,1,3.813,1.977,8.661,8.661,0,0,1,2.89,6.681c.029,1.235.025,2.473,0,3.711-.014.63.17.952.869.931,1.177-.036,2.354-.029,3.53,0,.583.011.8-.214.8-.8-.022-2.383-.018-4.765,0-7.151a1.039,1.039,0,0,0-.543-.96c-.811-.525-1.6-1.079-2.412-1.6-.42-.272-.442-.547-.2-.974,1.1-1.93,1.1-1.955,2.951-.692,3.722,2.553,2.962,1.256,3.038,5.652q.049,2.759-.007,5.522c-.014.717.174,1.017.952,1.017,1.3,0,1.767.536,1.771,1.85q.011,3.623,0,7.242c0,1.412-.456,1.984-1.879,1.934-1.137-.04-1.59.485-2.1,1.39a11.778,11.778,0,0,0-1.474,6.21c.1,7.6.036,15.2.036,22.808C58.3,140.837,58.3,141.166,58.3,141.684Zm-32.422-7.376q0,8.918,0,17.833c0,.319-.141.782.2.916a2.981,2.981,0,0,0,1.952.029c.507-.156.293-.728.3-1.122a44.424,44.424,0,0,1,.156-5.149,8.536,8.536,0,0,1,6.355-6.923c.322-.083,1.05.051.753-.67-.7-1.695-.4-3.458-.42-5.192a5.481,5.481,0,0,1,9.653-3.273c1.984,2.477,1.441,5.283.985,8.046-.109.652-.192.923.576,1.108a8.333,8.333,0,0,1,6.481,7.376,43.526,43.526,0,0,1,.1,4.609c.025,1.282.007,1.282,1.224,1.282,1.246,0,1.246,0,1.246-1.231V138.367q0-10.955.011-21.907c0-.713-.163-1.028-.952-1.01-1.992.047-3.983.043-5.975,0-.768-.018-.989.264-.981,1,.033,2.564.018,5.131.011,7.694,0,1.684-.489,2.173-2.144,2.173q-4.709.005-9.414,0c-1.785,0-2.241-.456-2.245-2.252,0-2.535,0-5.069-.007-7.6,0-.34.141-.826-.326-.931a3.071,3.071,0,0,0-1.868.036c-.492.217-.246.815-.246,1.242-.014,4.617-.025,9.233,0,13.85,0,.826-.264,1.184-1.094,1.086a4.525,4.525,0,0,0-.543,0c-1.333,0-1.336,0-1.336-1.38q-.005-6.882,0-13.76c0-1.137-.011-1.09-1.271-1.151-.858-.04-1.224.138-1.217,1.119C25.9,122.479,25.873,128.4,25.873,134.308ZM77.019,139.8q0-6.2,0-12.4c0-1.086-.011-1.039-1.322-1.1-.847-.036-1.151.2-1.144,1.1.04,4.345.029,8.69,0,13.035-.011,1.676-.507,2.133-2.194,2.14-2.777.007-5.551-.022-8.328.014a5.473,5.473,0,0,0-5.681,5.095c-.167,1.611-.047,3.255-.058,4.885a.527.527,0,0,0,.511.608c1.76.3,2.06.062,2.06-1.684v-.543c0-2.024.047-2.053,2.075-1.9.583.043.789.3.775.855-.022.753.043,1.514-.018,2.263-.065.8.235,1.036,1.028,1.028q5.611-.054,11.225,0c.844.011,1.086-.257,1.079-1.083C77,148,77.019,143.9,77.019,139.8ZM40.647,107.191h19c1.22,0,1.22,0,1.224-1.256v-2.716c0-1.195,0-1.2-1.2-1.2H40.035c-6.152,0-12.3.014-18.456-.014-.836,0-1.213.2-1.148,1.1a20.514,20.514,0,0,1,0,2.984c-.065.891.272,1.119,1.13,1.112C27.923,107.177,34.285,107.191,40.647,107.191ZM13.609,142.586v.014c-1.387,0-2.777-.04-4.16.007A5.465,5.465,0,0,0,4.3,147.923c-.018,1.387.047,2.777-.022,4.16-.043.905.308,1.137,1.151,1.1,1.314-.054,1.318-.011,1.318-1.358v-.815c0-2.107.051-2.144,2.2-1.97.529.043.764.261.764.782,0,.844.018,1.691,0,2.535-.011.558.181.826.786.818q3.167-.033,6.333,0c.6.007.8-.235.779-.807-.029-.844.011-1.687-.007-2.535-.011-.529.214-.742.739-.789,2.017-.185,2.107-.116,2.107,1.865,0,.21,0,.424,0,.634.022,1.782-.243,1.59,1.662,1.64.728.018.945-.25.923-.949-.04-1.325.007-2.654-.014-3.979a5.6,5.6,0,0,0-5.609-5.667C16.144,142.56,14.877,142.586,13.609,142.586ZM50.018,96c0-.724.014-1.448,0-2.173A5.618,5.618,0,0,0,44.829,88.5c-2.774-.076-5.551-.072-8.321,0a5.593,5.593,0,0,0-5.185,5.044c-.08,1.593-.011,3.2-.025,4.794,0,.485.174.742.684.717a6.3,6.3,0,0,1,.905,0c.688.065.905-.268.876-.909-.033-.753-.011-1.506,0-2.259,0-.406.036-.865.594-.811.768.076,1.626-.369,2.288.322.116.119.072.406.072.616.007.724.036,1.448,0,2.169-.036.681.25.891.905.88,1.687-.029,3.378,0,5.066-.011,2.191-.018,1.872.279,1.912-1.934.04-2.325-.438-2.053,2.252-2.064.511,0,.7.257.7.724,0,.724.054,1.452,0,2.169-.072.88.275,1.227,1.137,1.112a2.475,2.475,0,0,1,.543,0c.583.051.822-.206.8-.793C49.993,97.512,50.018,96.759,50.018,96ZM40.7,142.589c-1.325,0-2.654-.033-3.979.007A5.534,5.534,0,0,0,31.3,148.22c0,1.235,0,2.469,0,3.708s0,1.246,1.235,1.246,1.217,0,1.224-1.177c0-.333,0-.663,0-1,.033-2.082-.391-1.973,2.212-1.944.529.007.76.257.75.782-.014.753.043,1.51-.011,2.259-.058.807.192,1.13,1.057,1.094,1.564-.065,3.132-.018,4.7-.018,2.125,0,2.125,0,2.125-2.165,0-2.086,0-2.071,2.111-1.966.616.029.873.268.858.876-.018.782.022,1.568-.007,2.35-.025.641.177.981.873.905a3.458,3.458,0,0,1,.724,0c.681.076.894-.235.88-.891-.036-1.354-.007-2.712-.011-4.07a5.534,5.534,0,0,0-5.428-5.62C43.294,142.557,42,142.589,40.7,142.589Zm.043-32.447H25.558c-.272,0-.543,0-.815.014-.221.014-.406.065-.4.366a2.458,2.458,0,0,0,2.125,2.089c9.313,0,18.622-.025,27.936.033a2.053,2.053,0,0,0,2.3-1.466c.384-1.01.424-1.043-.681-1.043Q48.385,110.14,40.745,110.142Zm3.849,9.237c0-1.054-.014-2.107.007-3.157.011-.521-.17-.768-.728-.764q-3.2.027-6.409,0c-.547,0-.746.217-.742.753q.022,3.161,0,6.319c0,.558.181.836.775.833q3.161-.022,6.319,0c.587,0,.8-.25.789-.818C44.576,121.487,44.594,120.433,44.594,119.379Zm-1.34-37.734c.029,0,.058,0,.087,0a15.532,15.532,0,0,0-.145-1.792,2.563,2.563,0,0,0-5.073.011,10.661,10.661,0,0,0-.036,3.324,2.6,2.6,0,0,0,5.16-.011A11.947,11.947,0,0,0,43.254,81.645Zm.08,54.046a14.919,14.919,0,0,0-.116-1.745,2.59,2.59,0,0,0-2.578-2.2,2.55,2.55,0,0,0-2.52,2.154,10.386,10.386,0,0,0,.011,3.588,2.55,2.55,0,0,0,2.553,2.111,2.58,2.58,0,0,0,2.524-2.154A16.365,16.365,0,0,0,43.334,135.691Zm-27.153.04c0-.511.018-1.021,0-1.532a2.521,2.521,0,0,0-2.506-2.448,2.552,2.552,0,0,0-2.629,2.336,28.637,28.637,0,0,0,0,3.154,2.553,2.553,0,0,0,2.607,2.361,2.519,2.519,0,0,0,2.527-2.426C16.2,136.695,16.18,136.213,16.18,135.731Zm48.955-.1c0,.511-.018,1.025,0,1.532a2.524,2.524,0,0,0,2.517,2.437,2.552,2.552,0,0,0,2.618-2.35,28.635,28.635,0,0,0,0-3.154,2.574,2.574,0,0,0-5.134.091C65.117,134.667,65.135,135.148,65.135,135.63Zm10.649-14.741c-1.217,0-1.217,0-1.22,1.155,0,1.307,0,1.307,1.177,1.311,1.256,0,1.275-.011,1.275-1.227C77.019,120.889,77.019,120.889,75.784,120.889ZM4.278,108.5A4.261,4.261,0,0,0,.013,112.93c.127,1.709.022,3.436.029,5.153a4.069,4.069,0,0,0,3.378,4.092,9.9,9.9,0,0,0,3.422.087c2.426-.369,3.777.529,4.664,2.839.84,2.183.449,2.01,2.785.9.554-.264.59-.554.33-1.061-.735-1.419-1.47-2.839-2.14-4.287a2.077,2.077,0,0,0-2.133-1.333c-1.988.033-3.979.018-5.971,0-.938-.007-1.448-.449-1.474-1.347q-.065-2.574,0-5.156c.022-.9.529-1.325,1.466-1.354.634-.018,1.267-.007,1.9-.014.319,0,.648-.058.681-.442a3.911,3.911,0,0,0-.091-2.223c-.333-.6-1.112-.185-1.579-.293C4.879,108.5,4.579,108.491,4.278,108.5ZM73.224,82.8c-1.177,0-2.35.011-3.527,0a2.174,2.174,0,0,0-2.274,1.419c-.442,1.054-1.021,2.049-1.517,3.081-1.032,2.154-1.282,1.611.974,2.8.518.275.8.185,1.054-.351.5-1.065,1.072-2.093,1.564-3.157a1.33,1.33,0,0,1,1.412-.851c2.107.04,4.218.047,6.326,0a4.069,4.069,0,0,0,4.03-4.131c.007-1.658.014-3.313,0-4.972-.022-2.071.308-1.821-1.887-1.876-.771-.018-.981.29-.967,1.01.036,1.807.022,3.617.007,5.424-.011,1.148-.438,1.579-1.586,1.6-1.206.018-2.412,0-3.617,0C73.224,82.8,73.224,82.8,73.224,82.8ZM12.262,113.912c-1.492,0-1.492,0-1.492,1.481s0,1.488,1.481,1.488,1.481,0,1.481-1.481S13.732,113.912,12.262,113.912Zm3.925,1.423c0,1.543,0,1.543,1.427,1.546,1.543,0,1.543,0,1.543-1.423,0-1.543,0-1.543-1.423-1.546C16.187,113.912,16.187,113.912,16.187,115.335Zm-7.879.112c0-1.535,0-1.535-1.43-1.535-1.517,0-1.521,0-1.521,1.477s0,1.492,1.506,1.492C8.308,116.881,8.308,116.881,8.308,115.447ZM62.163,78.828c0,1.506,0,1.506,1.448,1.506,1.517,0,1.517,0,1.521-1.347,0-1.5,0-1.5-1.452-1.5C62.163,77.481,62.163,77.481,62.163,78.828Zm5.421.058c0,1.448,0,1.448,1.5,1.448,1.463,0,1.463,0,1.466-1.4,0-1.448,0-1.448-1.51-1.448C67.583,77.485,67.583,77.485,67.583,78.886Zm5.424.018c0,1.43,0,1.43,1.441,1.43,1.514,0,1.514,0,1.51-1.466,0-1.383,0-1.383-1.5-1.383C73.007,77.485,73.007,77.485,73.007,78.9ZM29.853,134.189c-1.506,0-1.506,0-1.51,1.39,0,1.579,0,1.579,1.412,1.579,1.546,0,1.546,0,1.546-1.434C31.3,134.192,31.3,134.192,29.853,134.189Z" transform="translate(-0.003 -74.735)"/></svg>