<svg xmlns="http://www.w3.org/2000/svg" width="72.836" height="83.162" viewBox="0 0 72.836 83.162"><defs><style>.a{fill:#673bb8;}</style></defs><path class="a" d="M1026.036,132.587v-36.4a2.464,2.464,0,0,1,.4-1.76,2.107,2.107,0,0,1,1.782-.578q8.336.006,16.669,0h39.456c2.075,0,2.553.478,2.553,2.568q0,11.254-.007,22.505c0,1.278,0,1.282,1.293,1.282,2.749,0,5.495,0,8.244,0,1.76,0,2.364.589,2.364,2.316,0,15.528-.063,31.057.044,46.585a7.939,7.939,0,0,1-7.892,7.9q-28.295-.122-56.589-.007a8.725,8.725,0,0,1-8.355-8.4C1026.125,156.6,1026.036,144.6,1026.036,132.587Zm57.308,1.4h-.011q0-17.646,0-35.288c0-1.4.011-1.408-1.434-1.408h-50.846c-1.575,0-1.575,0-1.575,1.538v52.328c0,5.524-.011,11.052.022,16.577a5.8,5.8,0,0,0,1.208,4.072,5.564,5.564,0,0,0,4.509,1.73q22.781.006,45.566,0c.956,0,1.916-.026,2.871,0,.641.015.971-.063.541-.8a7.361,7.361,0,0,1-.856-3.839Zm3.557,12.961q0,10.832.008,21.664a9.2,9.2,0,0,0,.148,1.656,4.039,4.039,0,0,0,4.439,3.2c2.486-.33,3.839-1.927,3.842-4.717q.028-21.986.022-43.976c0-.756-.233-1.041-1.008-1.026-2.067.041-4.135.019-6.2.026-1.241,0-1.245,0-1.245,1.226Q1086.893,135.974,1086.9,146.945Zm-30.545-18.077h18.14c1.819,0,2.4.559,2.4,2.356q.011,8.009,0,16.014c0,1.782-.556,2.3-2.334,2.319-3.731.048-7.462.022-11.193.074-3.264.044-6.536-.074-9.8-.074-5.117,0-10.237,0-15.354,0-1.845,0-2.349-.515-2.349-2.382q-.005-7.731,0-15.458c0-2.512.337-2.849,2.812-2.853q8.842-.011,17.681,0A.029.029,0,0,0,1056.356,128.867Zm-.082,8.555h0q3.007-.006,6.017,0c3.331,0,6.666-.019,10,.019.815.007,1.1-.274,1.06-1.074a26.319,26.319,0,0,1,0-2.96c.052-.871-.3-1.093-1.13-1.1-3.39-.033-6.777.141-10.171.048-3.849-.107-7.71.067-11.564.052-3.39-.015-6.784-.011-10.174-.089-.763-.019-1.049.237-1,1.008.052.952.011,1.912.011,2.868,0,1.234,0,1.241,1.215,1.241Q1048.4,137.424,1056.274,137.423Zm.1,3.583v-.011c-5.306,0-10.612.019-15.917-.019-.9-.007-1.212.267-1.145,1.16a18.219,18.219,0,0,1,0,2.775c-.078.93.23,1.219,1.178,1.212,6.229-.041,12.453-.007,18.682-.026,2.649-.007,5.3-.156,7.951-.1,1.693.037,3.39.059,5.083.122.915.033,1.2-.315,1.141-1.182-.059-.889-.011-1.79-.015-2.683,0-1.238-.015-1.249-1.23-1.249Zm-9.422-37.863q4.4,0,8.8,0c1.826,0,2.423.611,2.427,2.464q.011,7.87,0,15.739c0,1.982-.589,2.582-2.612,2.59-4.072.019-8.148.011-12.219.011-1.634,0-3.272,0-4.906-.011-1.964-.015-2.56-.6-2.56-2.523q-.005-8.053,0-16.11c0-1.575.6-2.168,2.193-2.171q4.446-.006,8.889,0C1046.948,103.139,1046.948,103.139,1046.948,103.143Zm0,3.557c-2.19,0-4.383.026-6.573-.015-.8-.015-1.075.245-1.067,1.063q.05,5.786,0,11.575c-.007.8.215,1.082,1.045,1.075q6.619-.05,13.242,0c.745,0,1.045-.215,1.041-1q-.045-5.836,0-11.668c.007-.845-.345-1.049-1.108-1.037C1051.331,106.718,1049.138,106.7,1046.948,106.7Zm9.4,58.616h3.979q7.314,0,14.624,0c1.193,0,1.923-.656,1.919-1.667a1.815,1.815,0,0,0-1.878-1.771c-.215-.011-.434-.007-.648-.007H1038.16a5.618,5.618,0,0,0-.83.03,1.772,1.772,0,0,0-1.449,1.678,1.66,1.66,0,0,0,1.5,1.708,8.427,8.427,0,0,0,1.015.026h17.955S1056.352,165.311,1056.352,165.315Zm12.294-6.925a1.719,1.719,0,0,0-.448-3.4c-.307-.019-.615-.007-.926-.007H1052.1q-7.031,0-14.057,0c-1.345,0-2.06.522-2.153,1.53s.63,1.734,1.893,1.953a25.607,25.607,0,0,0,4.428-.033c4.194,0,8.388.122,12.579.078,4.287-.044,8.566-.03,12.857.07A9.477,9.477,0,0,0,1068.646,158.39Zm-6.491-55.236a1.777,1.777,0,0,0-1.971,1.749,1.868,1.868,0,0,0,1.971,1.793c4.283.022,8.566.007,12.846-.011a1.681,1.681,0,0,0,1.512-.734,1.746,1.746,0,0,0,.148-1.838,1.706,1.706,0,0,0-1.66-.963c-2.127-.007-4.25,0-6.376,0C1066.467,103.146,1064.311,103.128,1062.154,103.154Zm6.414,17.222c-2.16,0-4.32-.022-6.484.007a1.849,1.849,0,0,0-1.912,1.652c-.078.978.508,1.623,1.686,1.816a7.883,7.883,0,0,0,1.29.082q5.419.017,10.834.015a8.486,8.486,0,0,0,1.019-.03c1.163-.137,1.893-.848,1.875-1.8a1.789,1.789,0,0,0-2.008-1.73c-2.1-.03-4.2-.007-6.3-.007Zm-6.34-8.548c-1.26.011-2.038.66-2.045,1.66a1.823,1.823,0,0,0,2.049,1.778q6.292.022,12.59,0a1.806,1.806,0,0,0,2.038-1.69c.033-1.071-.734-1.745-2.038-1.753-2.068-.011-4.135,0-6.2,0C1066.486,111.82,1064.355,111.809,1062.228,111.827Zm11.153,44.9a1.783,1.783,0,0,0,1.745,1.686,1.752,1.752,0,0,0,1.749-1.76,1.654,1.654,0,0,0-1.727-1.656A1.731,1.731,0,0,0,1073.381,156.726Z" transform="translate(-1025.999 -93.85)"/></svg>