<svg id="Layer_1" data-name="Layer 1" xmlns="http://www.w3.org/2000/svg" viewBox="0 0 279 44"><defs><style>.cls-1{fill:#fff;}.cls-2{fill:#cf0a2c;}.cls-3{isolation:isolate;}.cls-4{fill:#5c5c5c;}</style></defs><title>CardConceptArtboard 1</title><g id="odtu-logo-tr"><g id="Group_69" data-name="Group 69"><g id="Path_65" data-name="Path 65"><path class="cls-1" d="M25.6.89H21.74a21,21,0,0,0,0,42h7.72a21,21,0,0,0,0-42H25.6"/></g><g id="Group_68" data-name="Group 68"><g id="Path_66" data-name="Path 66"><path class="cls-2" d="M29.63,41.09a24.46,24.46,0,0,1-2.57-.17,19.86,19.86,0,0,0,0-38.23c.85-.08,1.71-.17,2.57-.17a19.29,19.29,0,0,1,0,38.57M9.74,21.89A19.93,19.93,0,0,1,25.6,2.44V41.26A19.86,19.86,0,0,1,9.74,21.89M29.63,2a21.05,21.05,0,0,0-4,.43h0a19.84,19.84,0,1,0-8.21,38.82,19.59,19.59,0,0,0,8.21,0h0a20.28,20.28,0,0,0,4,.43A19.84,19.84,0,0,0,29.63,2"/></g></g></g><g id="ORTA_DOĞU_TEKNİK_ÜNİVERSİTESİ_MIDDLE_EAST_TECHNICAL_UNIVERSITY" data-name="ORTA DOĞU TEKNİK ÜNİVERSİTESİ MIDDLE EAST TECHNICAL UNIVERSITY" class="cls-3"><g class="cls-3"><path class="cls-4" d="M64.72,11.19a1.59,1.59,0,0,1,.62.12,1.78,1.78,0,0,1,.51.35,1.6,1.6,0,0,1,.35.51,1.45,1.45,0,0,1,.13.63v5a1.44,1.44,0,0,1-.13.62,1.69,1.69,0,0,1-.86.86,1.44,1.44,0,0,1-.62.13H61.19a1.44,1.44,0,0,1-.62-.13,1.69,1.69,0,0,1-.86-.86,1.44,1.44,0,0,1-.13-.62v-5a1.45,1.45,0,0,1,.13-.63,1.6,1.6,0,0,1,.35-.51,1.78,1.78,0,0,1,.51-.35,1.59,1.59,0,0,1,.62-.12ZM61.61,12.6a.51.51,0,0,0-.52.5v4.4a.49.49,0,0,0,.15.35.5.5,0,0,0,.37.15H64.3a.5.5,0,0,0,.37-.15.49.49,0,0,0,.15-.35V13.1a.51.51,0,0,0-.52-.5Z"/><path class="cls-4" d="M68.29,11.33h4a1.61,1.61,0,0,1,.63.12,1.54,1.54,0,0,1,.51.35,1.78,1.78,0,0,1,.35.51,1.61,1.61,0,0,1,.12.63v1.84a1.57,1.57,0,0,1-.35,1,1.5,1.5,0,0,1-.88.53h-.11l2.08,3H72.89l-2-2.89H69.81v2.89H68.29Zm3.41,3.82a.67.67,0,0,0,.5-.2.62.62,0,0,0,.19-.46V13.31a.63.63,0,0,0-.19-.46.64.64,0,0,0-.5-.21H69.81v2.51Z"/><path class="cls-4" d="M74.92,11.33h6.79v1.33H79.08v6.62H77.57V12.66H74.92Z"/><path class="cls-4" d="M84.37,11.33h1.46l3.08,8h-1.6l-.77-2.06H83.66l-.77,2.06h-1.6ZM86.12,16l-1-2.74-1,2.74Z"/><path class="cls-4" d="M92.83,19.28v-8h4.9a1.68,1.68,0,0,1,.63.12,1.54,1.54,0,0,1,.51.35,1.75,1.75,0,0,1,.34.51,1.45,1.45,0,0,1,.13.63v4.73a1.44,1.44,0,0,1-.13.62,1.75,1.75,0,0,1-.34.51,1.41,1.41,0,0,1-.51.35,1.51,1.51,0,0,1-.63.13Zm4.46-1.42a.49.49,0,0,0,.38-.15.47.47,0,0,0,.14-.35V13.24a.5.5,0,0,0-.52-.5H94.35v5.12Z"/><path class="cls-4" d="M106.3,11.19a1.59,1.59,0,0,1,.62.12,1.78,1.78,0,0,1,.51.35,1.6,1.6,0,0,1,.35.51,1.45,1.45,0,0,1,.13.63v5a1.44,1.44,0,0,1-.13.62,1.69,1.69,0,0,1-.86.86,1.44,1.44,0,0,1-.62.13h-3.53a1.44,1.44,0,0,1-.62-.13,1.5,1.5,0,0,1-.51-.35,1.6,1.6,0,0,1-.35-.51,1.44,1.44,0,0,1-.13-.62v-5a1.45,1.45,0,0,1,.13-.63,1.6,1.6,0,0,1,.35-.51,1.65,1.65,0,0,1,.51-.35,1.59,1.59,0,0,1,.62-.12Zm-3.11,1.41a.51.51,0,0,0-.52.5v4.4a.49.49,0,0,0,.15.35.5.5,0,0,0,.37.15h2.69a.5.5,0,0,0,.37-.15.49.49,0,0,0,.15-.35V13.1a.51.51,0,0,0-.52-.5Z"/><path class="cls-4" d="M109.73,12.8a1.61,1.61,0,0,1,.12-.63,1.78,1.78,0,0,1,.35-.51,1.83,1.83,0,0,1,.52-.35,1.68,1.68,0,0,1,.63-.12h3a1.61,1.61,0,0,1,.63.12,1.54,1.54,0,0,1,.51.35,1.78,1.78,0,0,1,.35.51,1.61,1.61,0,0,1,.12.63v1.06H114.5V13.1a.54.54,0,0,0-.14-.35.46.46,0,0,0-.36-.15h-2.24a.49.49,0,0,0-.36.15.5.5,0,0,0-.15.35v4.4a.49.49,0,0,0,.15.35.49.49,0,0,0,.36.15H114a.46.46,0,0,0,.36-.15.52.52,0,0,0,.14-.35v-1H113V15.33h3v2.48a1.59,1.59,0,0,1-.12.62,1.78,1.78,0,0,1-.35.51,1.41,1.41,0,0,1-.51.35,1.45,1.45,0,0,1-.63.13h-3a1.51,1.51,0,0,1-.63-.13,1.64,1.64,0,0,1-.52-.35,1.78,1.78,0,0,1-.35-.51,1.59,1.59,0,0,1-.12-.62Zm2.52-4.11a.61.61,0,0,0,.18.47.58.58,0,0,0,.42.18.59.59,0,0,0,.41-.16.6.6,0,0,0,.19-.49h1a1.79,1.79,0,0,1-.15.75A1.73,1.73,0,0,1,114,10a1.44,1.44,0,0,1-.52.33,1.54,1.54,0,0,1-.59.11,1.63,1.63,0,0,1-.62-.12,1.71,1.71,0,0,1-.88-.9,1.86,1.86,0,0,1-.14-.73Z"/><path class="cls-4" d="M117.86,11.33h1.51V17.5a.49.49,0,0,0,.15.35.5.5,0,0,0,.37.15h2.26a.5.5,0,0,0,.51-.5V11.33h1.53v6.48a1.44,1.44,0,0,1-.13.62,1.75,1.75,0,0,1-.34.51,1.45,1.45,0,0,1-.52.35,1.53,1.53,0,0,1-.64.13h-3.09a1.44,1.44,0,0,1-.62-.13,1.69,1.69,0,0,1-.86-.86,1.44,1.44,0,0,1-.13-.62Z"/><path class="cls-4" d="M128,11.33h6.79v1.33H132.2v6.62h-1.52V12.66H128Z"/><path class="cls-4" d="M136.09,11.33h5.43v1.33h-3.91v2h3v1.24h-3v2h4v1.42h-5.53Z"/><path class="cls-4" d="M143.3,11.33h1.52v3.44l3.38-3.44H150l-3.82,3.94,3.88,4h-1.93l-3.31-3.38v3.38H143.3Z"/><path class="cls-4" d="M151.32,11.33h1.23l3.81,3.8v-3.8h1.53v8h-1.53V17.12l-3.51-3.53v5.69h-1.53Z"/><path class="cls-4" d="M160.06,11.33h1.55v8h-1.55Zm.19-2.69h1.18v1.48h-1.18Z"/><path class="cls-4" d="M163.78,11.33h1.53v3.44l3.37-3.44h1.81l-3.83,3.94,3.88,4h-1.93l-3.3-3.38v3.38h-1.53Z"/><path class="cls-4" d="M174.39,11.33h1.51V17.5a.49.49,0,0,0,.15.35.5.5,0,0,0,.37.15h2.26a.5.5,0,0,0,.51-.5V11.33h1.53v6.48a1.44,1.44,0,0,1-.13.62,1.57,1.57,0,0,1-.34.51,1.45,1.45,0,0,1-.52.35,1.51,1.51,0,0,1-.63.13H176a1.44,1.44,0,0,1-.62-.13,1.69,1.69,0,0,1-.86-.86,1.44,1.44,0,0,1-.13-.62Zm1.4-2.69H177v1.48h-1.18Zm2.35,0h1.18v1.48h-1.18Z"/><path class="cls-4" d="M182.75,11.33H184l3.81,3.8v-3.8h1.53v8h-1.53V17.12l-3.51-3.53v5.69h-1.53Z"/><path class="cls-4" d="M191.49,11.33H193v8h-1.55Zm.19-2.69h1.18v1.48h-1.18Z"/><path class="cls-4" d="M196,11.33l2,5.61,2-5.61h1.64l-3.05,8h-1.26l-3-8Z"/><path class="cls-4" d="M203,11.33h5.43v1.33H204.5v2h3v1.24h-3v2h4v1.42H203Z"/><path class="cls-4" d="M210.19,11.33h4a1.61,1.61,0,0,1,.63.12,1.54,1.54,0,0,1,.51.35,1.78,1.78,0,0,1,.35.51,1.61,1.61,0,0,1,.12.63v1.84a1.52,1.52,0,0,1-.35,1,1.47,1.47,0,0,1-.88.53h-.11l2.08,3h-1.75l-2-2.89h-1.07v2.89h-1.52Zm3.41,3.82a.65.65,0,0,0,.5-.2.62.62,0,0,0,.19-.46V13.31a.63.63,0,0,0-.19-.46.63.63,0,0,0-.5-.21h-1.89v2.51Z"/><path class="cls-4" d="M217.73,16.84h1.46v.66a.49.49,0,0,0,.15.35.53.53,0,0,0,.37.15h2.1a.49.49,0,0,0,.36-.15.46.46,0,0,0,.16-.36v-.76a.56.56,0,0,0-.08-.27.32.32,0,0,0-.23-.16l-3.33-.9a1.1,1.1,0,0,1-.7-.48,1.43,1.43,0,0,1-.26-.82V12.8a1.6,1.6,0,0,1,.48-1.14,1.78,1.78,0,0,1,.51-.35,1.59,1.59,0,0,1,.62-.12h2.87a1.69,1.69,0,0,1,.64.12,1.59,1.59,0,0,1,.52.35,1.75,1.75,0,0,1,.34.51,1.45,1.45,0,0,1,.13.63v1h-1.47V13.1a.51.51,0,0,0-.52-.5h-2.09a.53.53,0,0,0-.37.15.54.54,0,0,0-.16.37v.75a.5.5,0,0,0,.08.27.4.4,0,0,0,.23.17l3.33.89a1.26,1.26,0,0,1,.71.5,1.43,1.43,0,0,1,.26.82v1.29a1.44,1.44,0,0,1-.13.62,1.75,1.75,0,0,1-.34.51,1.45,1.45,0,0,1-.52.35,1.53,1.53,0,0,1-.64.13h-2.87a1.44,1.44,0,0,1-.62-.13,1.63,1.63,0,0,1-1-1.48Z"/><path class="cls-4" d="M225.8,11.33h1.55v8H225.8ZM226,8.64h1.18v1.48H226Z"/><path class="cls-4" d="M228.68,11.33h6.79v1.33h-2.63v6.62h-1.51V12.66h-2.65Z"/><path class="cls-4" d="M236.73,11.33h5.43v1.33h-3.9v2h3v1.24h-3v2h4v1.42h-5.53Z"/><path class="cls-4" d="M243.73,16.84h1.46v.66a.49.49,0,0,0,.15.35.51.51,0,0,0,.37.15h2.1a.51.51,0,0,0,.51-.51v-.76a.54.54,0,0,0-.07-.27.32.32,0,0,0-.23-.16l-3.34-.9a1.15,1.15,0,0,1-.7-.48,1.49,1.49,0,0,1-.25-.82V12.8a1.45,1.45,0,0,1,.13-.63,1.6,1.6,0,0,1,.35-.51,1.78,1.78,0,0,1,.51-.35,1.59,1.59,0,0,1,.62-.12h2.87a1.58,1.58,0,0,1,1.16.47,1.75,1.75,0,0,1,.34.51,1.61,1.61,0,0,1,.13.63v1h-1.47V13.1a.51.51,0,0,0-.52-.5h-2.09a.53.53,0,0,0-.37.15.5.5,0,0,0-.16.37v.75a.5.5,0,0,0,.08.27.4.4,0,0,0,.23.17l3.33.89a1.29,1.29,0,0,1,.71.5,1.43,1.43,0,0,1,.26.82v1.29a1.6,1.6,0,0,1-.13.62,1.75,1.75,0,0,1-.34.51,1.64,1.64,0,0,1-1.16.48h-2.87a1.44,1.44,0,0,1-.62-.13,1.69,1.69,0,0,1-.86-.86,1.44,1.44,0,0,1-.13-.62Z"/><path class="cls-4" d="M251.8,11.33h1.55v8H251.8ZM252,8.64h1.18v1.48H252Z"/></g><g class="cls-3"><path class="cls-4" d="M59.19,27.33h1.09l2.84,5.54L66,27.33h1.09v8H65.6V31.05l-2.14,4.23h-.67l-2.14-4.23v4.23H59.19Z"/><path class="cls-4" d="M69.23,27.33h1.55v8H69.23Z"/><path class="cls-4" d="M73,35.28v-8h4.9a1.61,1.61,0,0,1,.63.12,1.54,1.54,0,0,1,.51.35,1.78,1.78,0,0,1,.35.51,1.61,1.61,0,0,1,.12.63v4.73a1.59,1.59,0,0,1-.12.62,1.78,1.78,0,0,1-.35.51,1.41,1.41,0,0,1-.51.35,1.45,1.45,0,0,1-.63.13Zm4.47-1.42a.5.5,0,0,0,.38-.15.52.52,0,0,0,.14-.35V29.24a.54.54,0,0,0-.14-.35.5.5,0,0,0-.38-.15H74.48v5.12Z"/><path class="cls-4" d="M81.42,35.28v-8h4.9a1.61,1.61,0,0,1,.63.12,1.54,1.54,0,0,1,.51.35,1.78,1.78,0,0,1,.35.51,1.61,1.61,0,0,1,.12.63v4.73a1.59,1.59,0,0,1-.12.62,1.78,1.78,0,0,1-.35.51,1.41,1.41,0,0,1-.51.35,1.45,1.45,0,0,1-.63.13Zm4.47-1.42a.5.5,0,0,0,.38-.15.52.52,0,0,0,.14-.35V29.24a.54.54,0,0,0-.14-.35.5.5,0,0,0-.38-.15H83v5.12Z"/><path class="cls-4" d="M89.89,35.28v-8h1.53v6.53h4v1.42Z"/><path class="cls-4" d="M96.67,27.33h5.43v1.33H98.19v2h3v1.24h-3v2h4v1.42H96.67Z"/><path class="cls-4" d="M106.54,27.33H112v1.33h-3.91v2h3v1.24h-3v2h4v1.42h-5.53Z"/><path class="cls-4" d="M116,27.33h1.45l3.08,8h-1.59l-.77-2.06h-2.89l-.77,2.06h-1.59ZM117.74,32l-1-2.74-1,2.74Z"/><path class="cls-4" d="M121.57,32.84H123v.66a.49.49,0,0,0,.15.35.53.53,0,0,0,.37.15h2.1a.49.49,0,0,0,.36-.15.5.5,0,0,0,.16-.36v-.76a.56.56,0,0,0-.08-.27.32.32,0,0,0-.23-.16l-3.33-.9a1.1,1.1,0,0,1-.7-.48,1.43,1.43,0,0,1-.26-.82V28.8a1.6,1.6,0,0,1,.48-1.14,1.78,1.78,0,0,1,.51-.35,1.59,1.59,0,0,1,.62-.12h2.87a1.58,1.58,0,0,1,1.16.47,1.75,1.75,0,0,1,.34.51,1.45,1.45,0,0,1,.13.63v1h-1.47V29.1a.51.51,0,0,0-.52-.5H123.6a.53.53,0,0,0-.37.15.54.54,0,0,0-.16.37v.75a.5.5,0,0,0,.08.27.4.4,0,0,0,.23.17l3.33.89a1.26,1.26,0,0,1,.71.5,1.43,1.43,0,0,1,.26.82v1.29a1.44,1.44,0,0,1-.13.62,1.75,1.75,0,0,1-.34.51,1.64,1.64,0,0,1-1.16.48h-2.87a1.44,1.44,0,0,1-.62-.13,1.63,1.63,0,0,1-1-1.48Z"/><path class="cls-4" d="M128.73,27.33h6.79v1.33h-2.63v6.62h-1.52V28.66h-2.64Z"/><path class="cls-4" d="M138.6,27.33h6.79v1.33h-2.63v6.62h-1.52V28.66H138.6Z"/><path class="cls-4" d="M146.65,27.33h5.43v1.33h-3.91v2h3v1.24h-3v2h4v1.42h-5.53Z"/><path class="cls-4" d="M153.72,28.8a1.61,1.61,0,0,1,.12-.63,1.78,1.78,0,0,1,.35-.51,1.83,1.83,0,0,1,.52-.35,1.68,1.68,0,0,1,.63-.12h3a1.61,1.61,0,0,1,.63.12,1.54,1.54,0,0,1,.51.35,1.57,1.57,0,0,1,.34.51,1.45,1.45,0,0,1,.13.63v1.06h-1.47V29.1a.54.54,0,0,0-.14-.35.46.46,0,0,0-.36-.15h-2.24a.49.49,0,0,0-.36.15.5.5,0,0,0-.15.35v4.4a.49.49,0,0,0,.15.35.49.49,0,0,0,.36.15H158a.46.46,0,0,0,.36-.15.52.52,0,0,0,.14-.35v-.74H160v1.05a1.44,1.44,0,0,1-.13.62,1.57,1.57,0,0,1-.34.51,1.41,1.41,0,0,1-.51.35,1.45,1.45,0,0,1-.63.13h-3a1.51,1.51,0,0,1-.63-.13,1.64,1.64,0,0,1-.52-.35,1.78,1.78,0,0,1-.35-.51,1.59,1.59,0,0,1-.12-.62Z"/><path class="cls-4" d="M161.85,27.33h1.51v3.2h3.29v-3.2h1.53v8h-1.53V32h-3.29v3.33h-1.51Z"/><path class="cls-4" d="M170.28,27.33h1.23l3.81,3.8v-3.8h1.52v8h-1.52V33.12l-3.52-3.53v5.69h-1.52Z"/><path class="cls-4" d="M179,27.33h1.56v8H179Z"/><path class="cls-4" d="M182.6,28.8a1.61,1.61,0,0,1,.12-.63,2,2,0,0,1,.35-.51,1.83,1.83,0,0,1,.52-.35,1.68,1.68,0,0,1,.63-.12h3a1.61,1.61,0,0,1,.63.12,1.54,1.54,0,0,1,.51.35,1.78,1.78,0,0,1,.35.51,1.61,1.61,0,0,1,.12.63v1.06h-1.47V29.1a.49.49,0,0,0-.14-.35.46.46,0,0,0-.36-.15h-2.24a.49.49,0,0,0-.36.15.5.5,0,0,0-.15.35v4.4a.49.49,0,0,0,.15.35.49.49,0,0,0,.36.15h2.24a.46.46,0,0,0,.36-.15.47.47,0,0,0,.14-.35v-.74h1.47v1.05a1.59,1.59,0,0,1-.12.62,1.78,1.78,0,0,1-.35.51,1.41,1.41,0,0,1-.51.35,1.45,1.45,0,0,1-.63.13h-3a1.51,1.51,0,0,1-.63-.13,1.64,1.64,0,0,1-.52-.35,2,2,0,0,1-.35-.51,1.59,1.59,0,0,1-.12-.62Z"/><path class="cls-4" d="M193,27.33h1.46l3.08,8h-1.6l-.77-2.06h-2.88l-.77,2.06h-1.6ZM194.72,32l-1-2.74-1,2.74Z"/><path class="cls-4" d="M198.77,35.28v-8h1.52v6.53h4v1.42Z"/><path class="cls-4" d="M208.13,27.33h1.52V33.5a.52.52,0,0,0,.14.35.5.5,0,0,0,.37.15h2.26a.5.5,0,0,0,.37-.15.49.49,0,0,0,.15-.35V27.33h1.52v6.48a1.59,1.59,0,0,1-.12.62,1.78,1.78,0,0,1-.35.51,1.41,1.41,0,0,1-.51.35,1.59,1.59,0,0,1-.64.13h-3.1a1.44,1.44,0,0,1-.62-.13,1.63,1.63,0,0,1-1-1.48Z"/><path class="cls-4" d="M216.49,27.33h1.23l3.81,3.8v-3.8h1.53v8h-1.53V33.12L218,29.59v5.69h-1.53Z"/><path class="cls-4" d="M225.23,27.33h1.55v8h-1.55Z"/><path class="cls-4" d="M229.75,27.33l2,5.61,2-5.61h1.64l-3.05,8h-1.26l-3-8Z"/><path class="cls-4" d="M236.72,27.33h5.43v1.33h-3.9v2h3v1.24h-3v2h4v1.42h-5.53Z"/><path class="cls-4" d="M243.93,27.33h4a1.68,1.68,0,0,1,.63.12,1.78,1.78,0,0,1,.51.35,1.75,1.75,0,0,1,.34.51,1.61,1.61,0,0,1,.13.63v1.84a1.57,1.57,0,0,1-.35,1,1.52,1.52,0,0,1-.89.53h-.11l2.09,3h-1.75l-2-2.89h-1.06v2.89h-1.53Zm3.42,3.82a.65.65,0,0,0,.49-.2.62.62,0,0,0,.19-.46V29.31a.63.63,0,0,0-.19-.46.62.62,0,0,0-.49-.21h-1.89v2.51Z"/><path class="cls-4" d="M251.48,32.84h1.45v.66a.46.46,0,0,0,.16.35.49.49,0,0,0,.36.15h2.1a.53.53,0,0,0,.37-.15.49.49,0,0,0,.15-.36v-.76a.56.56,0,0,0-.08-.27.32.32,0,0,0-.23-.16l-3.33-.9a1.12,1.12,0,0,1-.7-.48,1.42,1.42,0,0,1-.25-.82V28.8a1.61,1.61,0,0,1,.12-.63,1.69,1.69,0,0,1,.86-.86,1.64,1.64,0,0,1,.63-.12H256a1.68,1.68,0,0,1,.63.12,1.59,1.59,0,0,1,.52.35,1.78,1.78,0,0,1,.35.51,1.61,1.61,0,0,1,.12.63v1h-1.47V29.1a.5.5,0,0,0-.15-.35.48.48,0,0,0-.37-.15h-2.08a.51.51,0,0,0-.37.15.5.5,0,0,0-.16.37v.75a.5.5,0,0,0,.07.27.4.4,0,0,0,.23.17l3.34.89a1.27,1.27,0,0,1,.7.5,1.36,1.36,0,0,1,.26.82v1.29a1.59,1.59,0,0,1-.12.62,1.78,1.78,0,0,1-.35.51,1.45,1.45,0,0,1-.52.35,1.51,1.51,0,0,1-.63.13h-2.87a1.48,1.48,0,0,1-.63-.13,1.6,1.6,0,0,1-.51-.35,1.78,1.78,0,0,1-.35-.51,1.59,1.59,0,0,1-.12-.62Z"/><path class="cls-4" d="M259.54,27.33h1.56v8h-1.56Z"/><path class="cls-4" d="M262.43,27.33h6.79v1.33h-2.64v6.62h-1.51V28.66h-2.64Z"/><path class="cls-4" d="M269.64,27.33h1.7l1.87,3.26,1.87-3.26h1.71L274,32.06v3.22h-1.5V32.06Z"/></g></g></g></svg>